<svg width="100%" viewBox="0 0 25 29" fill="none" xmlns="http://www.w3.org/2000/svg">
<path fill-rule="evenodd" clip-rule="evenodd" d="M12.3314 28.3889L12.353 28.3766L12.3747 28.3889L18.5173 24.8659L24.7061 21.3183V7.12548L21.9233 8.72099L20.299 9.73937L16.7505 11.7962V15.0428L21.9233 12.0584V17.2248L21.9231 17.225L21.881 19.6674L12.353 25.1304L2.82517 19.6674L2.78301 17.225L2.78288 17.2248V8.72099L2.80439 8.70868L2.82517 8.72099L12.353 3.25841L19.0711 7.11006L21.9233 5.47476L12.3742 0L12.353 0.01218L12.3319 0L0 7.07034V21.3183L6.18877 24.8659L12.3314 28.3889Z" fill="#3B495C"/>
<path fill-rule="evenodd" clip-rule="evenodd" d="M5.04205 10.139L8.04878 11.9278V16.6245L12.353 19.1801L16.6573 16.6245V15.7892L19.664 14.0038V18.4716L12.353 22.8126L5.04205 18.4716V10.139Z" fill="#3B495C"/>
</svg>
